# xmcd CD database file
#
# Track frame offsets:
#	150
#	20767
#	34062
#	52202
#	67590
#	80785
#	90530
#	100990
#	114790
#	126504
#	139780
#	152012
#	164747
#	179692
#	190802
#	203920
#
# Disc length: 2820 seconds
#
# Revision: 1
# Processed by: cddbd v1.5PL3 Copyright (c) Steve Scherf et al.
# Submitted via: CDex 1.51
#
DISCID=e40b0210
DTITLE=Dimitri Plazomiti - Imeres
DYEAR=1998
DGENRE=New Age
TTITLE0=Zimeroma
TTITLE1=Alkyonides imeres
TTITLE2=Proi sti Valia Kalyta
TTITLE3=Imera apofaseon
TTITLE4=Kalimera
TTITLE5=Xaroymeni mera
TTITLE6=Fdinoporini mera
TTITLE7=Kadimerino
TTITLE8=Istorikes meres
TTITLE9=Mia mera me ti Maria
TTITLE10=Mia mera sti dalassa
TTITLE11=Dyskoli mera
TTITLE12=Lampri (Anastaseos imera)
TTITLE13=Kalokairini mera
TTITLE14=Mia vroxeri mera
TTITLE15=Feyjoyn ta xronia
EXTD=YEAR: 1998
EXTT0=
EXTT1=
EXTT2=
EXTT3=
EXTT4=
EXTT5=
EXTT6=
EXTT7=
EXTT8=
EXTT9=
EXTT10=
EXTT11=
EXTT12=
EXTT13=
EXTT14=
EXTT15=
PLAYORDER=
